<svg xmlns="http://www.w3.org/2000/svg" xmlns:xlink="http://www.w3.org/1999/xlink" width="1920" zoomAndPan="magnify" viewBox="0 0 1440 809.999993" height="1080" preserveAspectRatio="xMidYMid meet" version="1.0"><defs><clipPath id="e363153db0"><path d="M 334.53125 0 L 1144.53125 0 L 1144.53125 810 L 334.53125 810 Z M 334.53125 0 " clip-rule="nonzero"/></clipPath><clipPath id="d59ee5171b"><path d="M 448.886719 0 L 1030.179688 0 C 1032.050781 0 1033.921875 0.046875 1035.789062 0.136719 C 1037.660156 0.230469 1039.523438 0.367188 1041.386719 0.550781 C 1043.25 0.734375 1045.105469 0.964844 1046.957031 1.238281 C 1048.808594 1.511719 1050.652344 1.832031 1052.488281 2.199219 C 1054.324219 2.5625 1056.148438 2.972656 1057.964844 3.425781 C 1059.78125 3.882812 1061.582031 4.378906 1063.375 4.925781 C 1065.164062 5.46875 1066.941406 6.054688 1068.703125 6.683594 C 1070.464844 7.316406 1072.210938 7.988281 1073.941406 8.703125 C 1075.667969 9.421875 1077.378906 10.179688 1079.070312 10.980469 C 1080.761719 11.777344 1082.433594 12.621094 1084.085938 13.503906 C 1085.734375 14.386719 1087.363281 15.308594 1088.96875 16.269531 C 1090.574219 17.230469 1092.152344 18.230469 1093.710938 19.273438 C 1095.265625 20.3125 1096.796875 21.390625 1098.300781 22.503906 C 1099.800781 23.617188 1101.277344 24.769531 1102.722656 25.957031 C 1104.171875 27.144531 1105.585938 28.367188 1106.972656 29.621094 C 1108.359375 30.878906 1109.714844 32.167969 1111.039062 33.492188 C 1112.363281 34.816406 1113.652344 36.171875 1114.910156 37.558594 C 1116.164062 38.945312 1117.386719 40.363281 1118.574219 41.808594 C 1119.761719 43.253906 1120.914062 44.730469 1122.027344 46.234375 C 1123.144531 47.734375 1124.21875 49.265625 1125.261719 50.820312 C 1126.300781 52.378906 1127.300781 53.957031 1128.261719 55.5625 C 1129.226562 57.167969 1130.148438 58.796875 1131.03125 60.449219 C 1131.910156 62.097656 1132.753906 63.769531 1133.554688 65.460938 C 1134.351562 67.152344 1135.113281 68.863281 1135.828125 70.59375 C 1136.542969 72.320312 1137.21875 74.066406 1137.847656 75.828125 C 1138.476562 77.589844 1139.066406 79.367188 1139.609375 81.15625 C 1140.152344 82.949219 1140.648438 84.753906 1141.105469 86.566406 C 1141.558594 88.382812 1141.96875 90.207031 1142.335938 92.042969 C 1142.699219 93.878906 1143.019531 95.722656 1143.292969 97.574219 C 1143.570312 99.425781 1143.796875 101.28125 1143.980469 103.144531 C 1144.164062 105.007812 1144.300781 106.871094 1144.394531 108.742188 C 1144.484375 110.609375 1144.53125 112.480469 1144.53125 114.351562 L 1144.53125 695.648438 C 1144.53125 697.519531 1144.484375 699.390625 1144.394531 701.257812 C 1144.300781 703.128906 1144.164062 704.992188 1143.980469 706.855469 C 1143.796875 708.71875 1143.570312 710.574219 1143.292969 712.425781 C 1143.019531 714.277344 1142.699219 716.121094 1142.335938 717.957031 C 1141.96875 719.792969 1141.558594 721.617188 1141.105469 723.433594 C 1140.648438 725.246094 1140.152344 727.050781 1139.609375 728.84375 C 1139.066406 730.632812 1138.476562 732.410156 1137.847656 734.171875 C 1137.21875 735.933594 1136.542969 737.679688 1135.828125 739.40625 C 1135.113281 741.136719 1134.351562 742.847656 1133.554688 744.539062 C 1132.753906 746.230469 1131.910156 747.902344 1131.03125 749.550781 C 1130.148438 751.203125 1129.226562 752.832031 1128.261719 754.4375 C 1127.300781 756.042969 1126.300781 757.621094 1125.261719 759.179688 C 1124.21875 760.734375 1123.144531 762.265625 1122.027344 763.765625 C 1120.914062 765.269531 1119.761719 766.746094 1118.574219 768.191406 C 1117.386719 769.636719 1116.164062 771.054688 1114.910156 772.441406 C 1113.652344 773.828125 1112.363281 775.183594 1111.039062 776.507812 C 1109.714844 777.832031 1108.359375 779.121094 1106.972656 780.378906 C 1105.585938 781.632812 1104.171875 782.855469 1102.722656 784.042969 C 1101.277344 785.230469 1099.800781 786.382812 1098.300781 787.496094 C 1096.796875 788.609375 1095.265625 789.6875 1093.710938 790.726562 C 1092.152344 791.769531 1090.574219 792.769531 1088.96875 793.730469 C 1087.363281 794.691406 1085.734375 795.613281 1084.085938 796.496094 C 1082.433594 797.378906 1080.761719 798.21875 1079.070312 799.019531 C 1077.378906 799.820312 1075.667969 800.578125 1073.941406 801.296875 C 1072.210938 802.011719 1070.464844 802.683594 1068.703125 803.316406 C 1066.941406 803.945312 1065.164062 804.53125 1063.375 805.074219 C 1061.582031 805.621094 1059.78125 806.117188 1057.964844 806.574219 C 1056.148438 807.027344 1054.324219 807.4375 1052.488281 807.800781 C 1050.652344 808.167969 1048.808594 808.488281 1046.957031 808.761719 C 1045.105469 809.035156 1043.25 809.265625 1041.386719 809.449219 C 1039.523438 809.632812 1037.660156 809.769531 1035.789062 809.863281 C 1033.921875 809.953125 1032.050781 810 1030.179688 810 L 448.886719 810 C 447.011719 810 445.144531 809.953125 443.273438 809.863281 C 441.40625 809.769531 439.539062 809.632812 437.675781 809.449219 C 435.8125 809.265625 433.957031 809.035156 432.105469 808.761719 C 430.253906 808.488281 428.410156 808.167969 426.574219 807.800781 C 424.742188 807.4375 422.914062 807.027344 421.101562 806.574219 C 419.285156 806.117188 417.480469 805.621094 415.691406 805.074219 C 413.898438 804.53125 412.121094 803.945312 410.359375 803.316406 C 408.597656 802.683594 406.851562 802.011719 405.125 801.296875 C 403.394531 800.578125 401.683594 799.820312 399.992188 799.019531 C 398.300781 798.21875 396.628906 797.378906 394.980469 796.496094 C 393.328125 795.613281 391.703125 794.691406 390.097656 793.730469 C 388.492188 792.769531 386.910156 791.769531 385.355469 790.726562 C 383.796875 789.6875 382.269531 788.609375 380.765625 787.496094 C 379.261719 786.382812 377.785156 785.230469 376.339844 784.042969 C 374.894531 782.855469 373.476562 781.632812 372.089844 780.375 C 370.703125 779.121094 369.347656 777.832031 368.023438 776.507812 C 366.703125 775.183594 365.410156 773.828125 364.15625 772.441406 C 362.898438 771.054688 361.675781 769.636719 360.488281 768.191406 C 359.300781 766.746094 358.152344 765.269531 357.035156 763.765625 C 355.921875 762.265625 354.84375 760.734375 353.804688 759.179688 C 352.765625 757.621094 351.761719 756.042969 350.800781 754.4375 C 349.839844 752.832031 348.917969 751.203125 348.035156 749.550781 C 347.152344 747.902344 346.3125 746.230469 345.511719 744.539062 C 344.710938 742.847656 343.953125 741.136719 343.238281 739.40625 C 342.519531 737.679688 341.847656 735.933594 341.214844 734.171875 C 340.585938 732.410156 340 730.632812 339.457031 728.84375 C 338.914062 727.050781 338.414062 725.246094 337.960938 723.433594 C 337.503906 721.617188 337.09375 719.792969 336.730469 717.957031 C 336.363281 716.121094 336.042969 714.277344 335.769531 712.425781 C 335.496094 710.574219 335.265625 708.71875 335.082031 706.855469 C 334.898438 704.992188 334.761719 703.128906 334.671875 701.257812 C 334.578125 699.390625 334.53125 697.519531 334.53125 695.648438 L 334.53125 114.351562 C 334.53125 112.480469 334.578125 110.609375 334.671875 108.742188 C 334.761719 106.871094 334.898438 105.007812 335.082031 103.144531 C 335.265625 101.28125 335.496094 99.425781 335.769531 97.574219 C 336.042969 95.722656 336.363281 93.878906 336.730469 92.042969 C 337.09375 90.207031 337.503906 88.382812 337.960938 86.566406 C 338.414062 84.753906 338.914062 82.949219 339.457031 81.15625 C 340 79.367188 340.585938 77.589844 341.214844 75.828125 C 341.847656 74.066406 342.519531 72.320312 343.238281 70.59375 C 343.953125 68.863281 344.710938 67.152344 345.511719 65.460938 C 346.3125 63.769531 347.152344 62.097656 348.035156 60.449219 C 348.917969 58.796875 349.839844 57.167969 350.800781 55.5625 C 351.761719 53.957031 352.765625 52.378906 353.804688 50.820312 C 354.84375 49.265625 355.921875 47.734375 357.035156 46.234375 C 358.152344 44.730469 359.300781 43.253906 360.488281 41.808594 C 361.675781 40.363281 362.898438 38.945312 364.15625 37.558594 C 365.410156 36.171875 366.703125 34.816406 368.023438 33.492188 C 369.347656 32.167969 370.703125 30.878906 372.089844 29.621094 C 373.476562 28.367188 374.894531 27.144531 376.339844 25.957031 C 377.785156 24.769531 379.261719 23.617188 380.765625 22.503906 C 382.269531 21.390625 383.796875 20.3125 385.355469 19.273438 C 386.910156 18.230469 388.492188 17.230469 390.097656 16.269531 C 391.703125 15.308594 393.328125 14.386719 394.980469 13.503906 C 396.628906 12.621094 398.300781 11.777344 399.992188 10.980469 C 401.683594 10.179688 403.394531 9.421875 405.125 8.703125 C 406.851562 7.988281 408.597656 7.316406 410.359375 6.683594 C 412.121094 6.054688 413.898438 5.46875 415.691406 4.925781 C 417.480469 4.378906 419.285156 3.882812 421.101562 3.425781 C 422.914062 2.972656 424.742188 2.5625 426.574219 2.199219 C 428.410156 1.832031 430.253906 1.511719 432.105469 1.238281 C 433.957031 0.964844 435.8125 0.734375 437.675781 0.550781 C 439.539062 0.367188 441.40625 0.230469 443.273438 0.136719 C 445.144531 0.046875 447.011719 0 448.886719 0 Z M 448.886719 0 " clip-rule="nonzero"/></clipPath></defs><g clip-path="url(#e363153db0)"><g clip-path="url(#d59ee5171b)"><path fill="#006aff" d="M 334.53125 0 L 334.53125 810 L 1144.53125 810 L 1144.53125 0 Z M 334.53125 0 " fill-opacity="1" fill-rule="nonzero"/></g></g><path fill="#ffffff" d="M 770.667969 653.691406 L 671.929688 653.691406 L 671.929688 399.757812 L 610.886719 399.757812 L 610.886719 316 L 671.929688 316 L 671.929688 289.078125 C 671.929688 244.097656 682.269531 210.082031 702.953125 187.039062 C 723.855469 163.992188 757.433594 152.46875 803.691406 152.46875 C 812.140625 152.46875 822.371094 153.023438 834.378906 154.132812 C 846.609375 155.019531 856.503906 156.015625 864.066406 157.125 L 864.066406 239.886719 C 860.507812 239.441406 855.171875 239 848.054688 238.554688 C 841.160156 237.890625 835.824219 237.558594 832.042969 237.558594 C 810.25 237.558594 794.570312 241.992188 785.011719 250.855469 C 775.449219 259.71875 770.667969 275.007812 770.667969 296.722656 L 770.667969 316 L 862.066406 316 L 851.058594 399.757812 L 770.667969 399.757812 Z M 770.667969 653.691406 " fill-opacity="1" fill-rule="nonzero"/></svg>