<svg xmlns="http://www.w3.org/2000/svg" xmlns:xlink="http://www.w3.org/1999/xlink" width="1920" zoomAndPan="magnify" viewBox="0 0 1440 809.999993" height="1080" preserveAspectRatio="xMidYMid meet" version="1.0"><defs><clipPath id="33204d050e"><path d="M 396.53125 0 L 1206.53125 0 L 1206.53125 810 L 396.53125 810 Z M 396.53125 0 " clip-rule="nonzero"/></clipPath></defs><g clip-path="url(#33204d050e)"><path fill="#006aff" d="M 1206.585938 686.957031 C 1206.585938 754.9375 1151.480469 810.042969 1083.5 810.042969 L 519.6875 810.042969 C 451.707031 810.042969 396.609375 754.941406 396.609375 686.957031 L 396.609375 123.15625 C 396.609375 55.175781 451.707031 0.0742188 519.6875 0.0742188 L 1083.5 0.0742188 C 1151.480469 0.0742188 1206.585938 55.175781 1206.585938 123.15625 Z M 1206.585938 686.957031 " fill-opacity="1" fill-rule="nonzero"/></g><path fill="#ffffff" d="M 632.09375 179.617188 L 982.246094 179.617188 C 1015.507812 179.617188 1042.707031 206.820312 1042.707031 240.089844 L 1042.707031 590.246094 C 1042.707031 623.503906 1015.507812 650.683594 982.246094 650.683594 L 632.09375 650.683594 C 598.828125 650.683594 571.601562 623.503906 571.601562 590.246094 L 571.601562 240.089844 C 571.605469 206.820312 598.828125 179.617188 632.09375 179.617188 Z M 914.792969 231.9375 C 903.117188 231.9375 893.585938 241.515625 893.585938 253.179688 L 893.585938 303.914062 C 893.585938 315.601562 903.117188 325.136719 914.792969 325.136719 L 968.035156 325.136719 C 979.695312 325.136719 989.246094 315.601562 989.246094 303.914062 L 989.246094 253.179688 C 989.246094 241.515625 979.695312 231.9375 968.035156 231.9375 Z M 989.449219 378.824219 L 947.992188 378.824219 C 951.925781 391.671875 954.058594 405.195312 954.058594 419.277344 C 954.058594 497.613281 888.46875 561.144531 807.601562 561.144531 C 726.742188 561.144531 661.152344 497.613281 661.152344 419.277344 C 661.152344 405.195312 663.304688 391.671875 667.21875 378.824219 L 623.972656 378.824219 L 623.972656 577.839844 C 623.972656 588.148438 632.390625 596.519531 642.683594 596.519531 L 970.738281 596.519531 C 981.046875 596.519531 989.449219 588.148438 989.449219 577.839844 Z M 807.601562 322.46875 C 755.367188 322.46875 713.003906 363.488281 713.003906 414.148438 C 713.003906 464.757812 755.367188 505.820312 807.601562 505.820312 C 859.855469 505.820312 902.226562 464.757812 902.226562 414.148438 C 902.226562 363.488281 859.855469 322.46875 807.601562 322.46875 Z M 807.601562 322.46875 " fill-opacity="1" fill-rule="nonzero"/></svg>