<svg xmlns="http://www.w3.org/2000/svg" xmlns:xlink="http://www.w3.org/1999/xlink" width="1920" zoomAndPan="magnify" viewBox="0 0 1440 809.999993" height="1080" preserveAspectRatio="xMidYMid meet" version="1.0"><defs><clipPath id="0eac9ffdb7"><path d="M 291.34375 31 L 1069.84375 31 L 1069.84375 810 L 291.34375 810 Z M 291.34375 31 " clip-rule="nonzero"/></clipPath></defs><g clip-path="url(#0eac9ffdb7)"><path fill="#f3a61e" d="M 1069.742188 420.746094 C 1069.742188 475.515625 1058.4375 527.664062 1037.964844 574.898438 C 978.285156 713.164062 840.75 809.925781 680.613281 809.925781 C 520.472656 809.925781 396.367188 722.390625 332.539062 594.832031 C 306.277344 542.464844 291.480469 483.324219 291.480469 420.746094 C 291.480469 205.8125 465.707031 31.617188 680.613281 31.617188 C 895.515625 31.617188 1069.742188 205.8125 1069.742188 420.746094 Z M 1069.742188 420.746094 " fill-opacity="1" fill-rule="nonzero"/></g><path fill="#3d3b3c" d="M 1037.964844 574.898438 C 978.285156 713.164062 840.75 809.925781 680.613281 809.925781 C 520.472656 809.925781 396.367188 722.390625 332.539062 594.832031 C 343.789062 588.550781 356.457031 583.472656 370.597656 579.652344 C 418.699219 566.761719 489.894531 550.054688 489.894531 550.054688 L 511.789062 495.992188 L 508.296875 371.542969 C 508.296875 371.542969 556.835938 367.832031 583.425781 371.542969 C 610.015625 375.203125 710.203125 415.667969 710.203125 415.667969 L 766.441406 380.9375 C 766.441406 380.9375 809.957031 375.859375 831.578125 377.003906 C 853.199219 378.207031 881.589844 503.582031 881.589844 503.582031 L 902.339844 539.570312 C 902.339844 539.570312 938.703125 557.425781 987.789062 567.472656 C 1007.332031 571.460938 1023.605469 572.277344 1037.964844 574.898438 Z M 1037.964844 574.898438 " fill-opacity="1" fill-rule="nonzero"/><path fill="#56352c" d="M 563.96875 286.375 C 563.96875 286.375 534.703125 266.136719 528.734375 258.507812 C 522.765625 250.882812 509.898438 233.589844 501.871094 213.019531 C 493.84375 192.453125 470.292969 163.21875 478.941406 144.726562 C 487.585938 126.234375 532.921875 88.355469 532.921875 88.355469 C 532.921875 88.355469 541.109375 37.789062 577.984375 22.242188 C 614.855469 6.679688 732.371094 0.0195312 793.996094 31.582031 C 825.664062 47.800781 865.59375 53.3125 875.277344 64.871094 C 875.277344 64.871094 858.421875 68.113281 850.871094 80.855469 C 848.214844 85.351562 869.324219 98.253906 872.328125 101.167969 C 889.617188 117.878906 898.246094 115.566406 898.246094 115.566406 C 898.246094 115.566406 877.515625 124.210938 854.472656 120.753906 C 854.472656 120.753906 868.871094 132.277344 885.578125 163.382812 C 902.285156 194.492188 888.453125 207.359375 888.453125 207.359375 C 888.453125 207.359375 890.582031 190.46875 858.40625 184.132812 C 858.40625 184.132812 861.246094 200.898438 854.457031 219.046875 C 847.667969 237.195312 822.769531 265.371094 822.769531 265.371094 L 680.59375 356.382812 L 563.949219 286.359375 Z M 563.96875 286.375 " fill-opacity="1" fill-rule="nonzero"/><path fill="#da8059" d="M 551.757812 272.085938 C 551.757812 272.085938 539.855469 241.488281 521.328125 244.417969 C 502.800781 247.351562 496.902344 281.371094 506.222656 312.75 C 515.519531 344.132812 535.976562 375.148438 557.871094 358.53125 C 574.523438 345.878906 551.757812 272.085938 551.757812 272.085938 Z M 551.757812 272.085938 " fill-opacity="1" fill-rule="nonzero"/><path fill="#da8059" d="M 810.03125 259.78125 C 810.03125 259.78125 818.054688 229.929688 835.691406 230.769531 C 853.328125 231.605469 862.335938 262.875 856.820312 293.203125 C 851.324219 323.546875 835.328125 354.671875 813.140625 341.347656 C 796.253906 331.207031 810.03125 259.78125 810.03125 259.78125 Z M 810.03125 259.78125 " fill-opacity="1" fill-rule="nonzero"/><path fill="#fbc092" d="M 831.578125 540.167969 L 808.59375 607.226562 L 628.851562 645.941406 L 532.921875 552.894531 C 532.921875 552.894531 576.21875 532.632812 585.5 510.082031 C 588.773438 502 588.773438 485.835938 587.410156 468.363281 C 584.898438 436.910156 577.964844 401.25 577.964844 401.25 L 787.789062 390.4375 C 787.789062 390.4375 785.933594 423.476562 785.386719 455.585938 C 784.949219 479.992188 785.277344 503.910156 787.789062 512.429688 C 793.578125 532.089844 831.578125 540.167969 831.578125 540.167969 Z M 831.578125 540.167969 " fill-opacity="1" fill-rule="nonzero"/><path fill="#da8059" d="M 787.789062 390.4375 C 787.789062 390.4375 785.933594 423.476562 785.386719 455.585938 C 753.445312 485.890625 699.011719 535.089844 656.804688 528.867188 C 627.378906 524.550781 599.003906 502 587.410156 468.363281 C 584.898438 436.910156 577.964844 401.25 577.964844 401.25 Z M 787.789062 390.4375 " fill-opacity="1" fill-rule="nonzero"/><path fill="#fbc092" d="M 541.148438 251.554688 C 541.148438 251.554688 553.757812 343.003906 552.847656 362.371094 C 551.957031 381.738281 554.195312 395.699219 566.351562 405.617188 C 578.511719 415.519531 640.226562 471.839844 663.632812 475.441406 C 687.035156 479.046875 708.21875 477.699219 723.980469 468.234375 C 739.742188 458.769531 787.480469 419.578125 798.746094 410.132812 C 810.011719 400.6875 813.617188 390.800781 813.617188 364.425781 C 813.617188 338.050781 811.359375 272.289062 813.617188 234.464844 C 814.726562 215.898438 805.515625 103.390625 805.515625 103.390625 L 648.324219 60.59375 L 559.601562 101.132812 L 521.308594 137.628906 L 541.128906 251.589844 Z M 541.148438 251.554688 " fill-opacity="1" fill-rule="nonzero"/><path stroke-linecap="round" transform="matrix(1.819978, 0, 0, 1.820225, 291.481926, -23.6629)" fill="none" stroke-linejoin="round" d="M 206.620863 148.360604 C 206.620863 148.360604 210.789011 184.310838 209.660048 190.139445 " stroke="#da8059" stroke-width="6" stroke-opacity="1" stroke-miterlimit="4"/><path stroke-linecap="round" transform="matrix(1.819978, 0, 0, 1.820225, 291.481926, -23.6629)" fill="none" stroke-linejoin="round" d="M 145.910135 144.010608 C 145.910135 144.010608 167.240235 127.870344 177.999723 127.09992 C 188.759211 126.329497 192.030199 128.449771 192.030199 128.449771 " stroke="#7d2929" stroke-width="6" stroke-opacity="1" stroke-miterlimit="4"/><path stroke-linecap="round" transform="matrix(1.819978, 0, 0, 1.820225, 291.481926, -23.6629)" fill="none" stroke-linejoin="round" d="M 230.08011 128.439041 C 230.08011 128.439041 234.119479 127.140695 242.56953 126.930384 C 251.019581 126.720074 269.280447 139.77006 269.280447 139.77006 " stroke="#7d2929" stroke-width="6" stroke-opacity="1" stroke-miterlimit="4"/><path fill="#3d1119" d="M 629.414062 264.242188 C 629.472656 264.859375 629.515625 265.480469 629.535156 266.101562 C 629.554688 266.722656 629.554688 267.339844 629.535156 267.957031 C 629.519531 268.574219 629.480469 269.183594 629.421875 269.785156 C 629.367188 270.390625 629.289062 270.984375 629.195312 271.574219 C 629.101562 272.160156 628.984375 272.734375 628.855469 273.300781 C 628.722656 273.863281 628.570312 274.414062 628.402344 274.953125 C 628.234375 275.488281 628.050781 276.007812 627.847656 276.507812 C 627.648438 277.011719 627.429688 277.496094 627.195312 277.960938 C 626.960938 278.425781 626.710938 278.867188 626.445312 279.289062 C 626.183594 279.710938 625.90625 280.109375 625.613281 280.488281 C 625.320312 280.863281 625.019531 281.210938 624.703125 281.535156 C 624.386719 281.863281 624.058594 282.160156 623.722656 282.429688 C 623.382812 282.703125 623.035156 282.945312 622.679688 283.160156 C 622.324219 283.375 621.960938 283.5625 621.589844 283.71875 C 621.21875 283.875 620.84375 284.003906 620.460938 284.101562 C 620.078125 284.199219 619.691406 284.265625 619.300781 284.304688 C 618.910156 284.339844 618.519531 284.347656 618.125 284.324219 C 617.730469 284.296875 617.339844 284.242188 616.945312 284.160156 C 616.550781 284.074219 616.160156 283.960938 615.769531 283.8125 C 615.378906 283.667969 614.992188 283.496094 614.609375 283.292969 C 614.226562 283.089844 613.851562 282.859375 613.480469 282.597656 C 613.105469 282.335938 612.742188 282.050781 612.386719 281.738281 C 612.03125 281.421875 611.683594 281.082031 611.34375 280.71875 C 611.003906 280.355469 610.675781 279.964844 610.359375 279.550781 C 610.042969 279.140625 609.738281 278.707031 609.445312 278.25 C 609.152344 277.792969 608.875 277.316406 608.609375 276.824219 C 608.34375 276.328125 608.09375 275.816406 607.855469 275.285156 C 607.621094 274.757812 607.402344 274.210938 607.199219 273.652344 C 606.996094 273.09375 606.808594 272.523438 606.640625 271.941406 C 606.46875 271.359375 606.320312 270.765625 606.183594 270.164062 C 606.050781 269.5625 605.9375 268.957031 605.839844 268.34375 C 605.742188 267.730469 605.667969 267.113281 605.609375 266.492188 C 605.550781 265.871094 605.507812 265.25 605.488281 264.628906 C 605.46875 264.007812 605.46875 263.390625 605.488281 262.777344 C 605.503906 262.160156 605.542969 261.550781 605.601562 260.945312 C 605.65625 260.34375 605.734375 259.746094 605.828125 259.160156 C 605.921875 258.570312 606.039062 257.996094 606.167969 257.433594 C 606.300781 256.867188 606.453125 256.316406 606.621094 255.78125 C 606.789062 255.246094 606.972656 254.726562 607.175781 254.222656 C 607.375 253.71875 607.59375 253.234375 607.828125 252.773438 C 608.0625 252.308594 608.3125 251.863281 608.578125 251.441406 C 608.839844 251.019531 609.117188 250.621094 609.410156 250.246094 C 609.703125 249.871094 610.003906 249.519531 610.320312 249.195312 C 610.636719 248.871094 610.964844 248.574219 611.300781 248.300781 C 611.640625 248.03125 611.988281 247.785156 612.34375 247.570312 C 612.699219 247.355469 613.0625 247.167969 613.433594 247.011719 C 613.804688 246.855469 614.179688 246.726562 614.5625 246.628906 C 614.945312 246.535156 615.332031 246.464844 615.722656 246.429688 C 616.113281 246.390625 616.503906 246.386719 616.898438 246.410156 C 617.292969 246.433594 617.683594 246.488281 618.078125 246.574219 C 618.472656 246.660156 618.863281 246.773438 619.253906 246.917969 C 619.644531 247.0625 620.03125 247.238281 620.414062 247.441406 C 620.796875 247.644531 621.171875 247.875 621.542969 248.136719 C 621.917969 248.394531 622.28125 248.679688 622.636719 248.996094 C 622.992188 249.308594 623.339844 249.648438 623.679688 250.015625 C 624.019531 250.378906 624.347656 250.765625 624.664062 251.179688 C 624.980469 251.59375 625.285156 252.027344 625.578125 252.484375 C 625.871094 252.9375 626.148438 253.414062 626.414062 253.910156 C 626.679688 254.40625 626.929688 254.917969 627.167969 255.445312 C 627.402344 255.976562 627.621094 256.519531 627.824219 257.078125 C 628.027344 257.636719 628.214844 258.210938 628.382812 258.792969 C 628.554688 259.375 628.703125 259.96875 628.839844 260.566406 C 628.972656 261.167969 629.085938 261.777344 629.183594 262.390625 C 629.28125 263.003906 629.355469 263.621094 629.414062 264.242188 Z M 629.414062 264.242188 " fill-opacity="1" fill-rule="nonzero"/><path fill="#3d1119" d="M 739.226562 239.78125 C 739.609375 239.851562 739.988281 239.953125 740.359375 240.085938 C 740.730469 240.214844 741.097656 240.378906 741.449219 240.566406 C 741.804688 240.757812 742.152344 240.976562 742.488281 241.222656 C 742.820312 241.46875 743.144531 241.742188 743.457031 242.042969 C 743.769531 242.34375 744.066406 242.671875 744.355469 243.023438 C 744.640625 243.375 744.910156 243.75 745.167969 244.152344 C 745.421875 244.550781 745.664062 244.972656 745.890625 245.417969 C 746.113281 245.859375 746.324219 246.324219 746.511719 246.808594 C 746.703125 247.292969 746.878906 247.792969 747.035156 248.3125 C 747.191406 248.832031 747.328125 249.367188 747.445312 249.914062 C 747.566406 250.464844 747.664062 251.027344 747.746094 251.601562 C 747.824219 252.175781 747.886719 252.757812 747.929688 253.351562 C 747.96875 253.945312 747.992188 254.542969 747.996094 255.152344 C 747.996094 255.757812 747.980469 256.367188 747.941406 256.984375 C 747.90625 257.597656 747.847656 258.214844 747.773438 258.828125 C 747.695312 259.445312 747.601562 260.0625 747.488281 260.671875 C 747.371094 261.285156 747.238281 261.894531 747.089844 262.496094 C 746.9375 263.097656 746.765625 263.691406 746.578125 264.277344 C 746.394531 264.867188 746.1875 265.441406 745.96875 266.007812 C 745.746094 266.570312 745.507812 267.125 745.257812 267.660156 C 745.003906 268.199219 744.734375 268.722656 744.453125 269.226562 C 744.171875 269.734375 743.875 270.222656 743.566406 270.691406 C 743.257812 271.160156 742.9375 271.609375 742.605469 272.035156 C 742.269531 272.464844 741.929688 272.871094 741.574219 273.25 C 741.222656 273.632812 740.859375 273.992188 740.492188 274.324219 C 740.121094 274.65625 739.742188 274.964844 739.359375 275.246094 C 738.976562 275.523438 738.585938 275.777344 738.195312 276.003906 C 737.800781 276.226562 737.40625 276.425781 737.003906 276.59375 C 736.605469 276.761719 736.203125 276.898438 735.804688 277.007812 C 735.402344 277.117188 735 277.195312 734.601562 277.246094 C 734.203125 277.292969 733.804688 277.3125 733.410156 277.300781 C 733.015625 277.289062 732.625 277.246094 732.242188 277.175781 C 731.855469 277.105469 731.476562 277 731.105469 276.871094 C 730.734375 276.738281 730.371094 276.578125 730.015625 276.386719 C 729.660156 276.199219 729.316406 275.980469 728.980469 275.734375 C 728.644531 275.488281 728.320312 275.210938 728.007812 274.910156 C 727.695312 274.609375 727.398438 274.285156 727.113281 273.933594 C 726.828125 273.582031 726.554688 273.203125 726.300781 272.804688 C 726.042969 272.40625 725.800781 271.984375 725.578125 271.539062 C 725.351562 271.09375 725.144531 270.628906 724.953125 270.144531 C 724.761719 269.664062 724.585938 269.160156 724.433594 268.640625 C 724.277344 268.125 724.140625 267.589844 724.019531 267.039062 C 723.902344 266.492188 723.800781 265.929688 723.722656 265.355469 C 723.640625 264.78125 723.578125 264.199219 723.539062 263.605469 C 723.496094 263.011719 723.472656 262.410156 723.472656 261.804688 C 723.46875 261.199219 723.488281 260.585938 723.523438 259.972656 C 723.5625 259.355469 723.617188 258.742188 723.695312 258.125 C 723.769531 257.507812 723.863281 256.894531 723.980469 256.28125 C 724.09375 255.667969 724.226562 255.0625 724.378906 254.460938 C 724.53125 253.855469 724.699219 253.261719 724.886719 252.675781 C 725.074219 252.089844 725.277344 251.515625 725.5 250.949219 C 725.71875 250.382812 725.957031 249.832031 726.210938 249.292969 C 726.464844 248.753906 726.730469 248.234375 727.011719 247.726562 C 727.296875 247.222656 727.589844 246.734375 727.898438 246.265625 C 728.210938 245.792969 728.53125 245.347656 728.863281 244.917969 C 729.195312 244.492188 729.539062 244.085938 729.890625 243.703125 C 730.246094 243.320312 730.605469 242.964844 730.976562 242.632812 C 731.347656 242.296875 731.722656 241.992188 732.105469 241.710938 C 732.488281 241.429688 732.878906 241.175781 733.273438 240.953125 C 733.664062 240.726562 734.0625 240.53125 734.460938 240.363281 C 734.859375 240.195312 735.261719 240.054688 735.664062 239.949219 C 736.0625 239.839844 736.464844 239.757812 736.863281 239.710938 C 737.265625 239.660156 737.660156 239.644531 738.054688 239.65625 C 738.449219 239.664062 738.839844 239.707031 739.226562 239.78125 Z M 739.226562 239.78125 " fill-opacity="1" fill-rule="nonzero"/><path stroke-linecap="round" transform="matrix(1.819978, 0, 0, 1.820225, 291.481926, -23.6629)" fill="none" stroke-linejoin="round" d="M 174.280156 217.110705 C 174.280156 217.110705 186.559236 230.469719 203.150268 230.469719 C 229.650847 230.469719 244.119171 217.110705 244.119171 217.110705 " stroke="#7d2929" stroke-width="3" stroke-opacity="1" stroke-miterlimit="4"/><path fill="#3d3b3c" d="M 690.167969 625.902344 C 690.167969 625.902344 639.570312 612.667969 603.679688 580.523438 C 567.789062 548.378906 532.976562 511.429688 517.976562 466.433594 C 502.980469 421.4375 512.355469 409.003906 530.316406 403.636719 L 508.257812 371.527344 C 508.257812 371.527344 459.082031 371.800781 452.148438 393.222656 C 445.214844 414.664062 484.617188 479.59375 483.671875 489.367188 C 482.726562 499.140625 468.800781 494.410156 451.332031 504.183594 C 433.878906 513.957031 434.824219 547.6875 453.40625 572.898438 C 472.003906 598.109375 493.097656 648.726562 528.535156 659.921875 C 563.96875 671.117188 672.203125 645.960938 672.203125 645.960938 C 672.203125 645.960938 752.027344 674.847656 804.714844 658.066406 C 857.402344 641.285156 909 573.5 922.6875 561.066406 C 936.355469 548.632812 948.804688 543.027344 936.355469 525.625 C 923.925781 508.226562 902.777344 492.679688 902.777344 492.679688 C 902.777344 492.679688 922.667969 414.046875 909.621094 395.84375 C 896.570312 377.640625 831.558594 377.023438 831.558594 377.023438 C 831.558594 377.023438 841.863281 407.914062 840.003906 420.761719 C 838.148438 433.613281 848.996094 430.59375 851.199219 447.285156 C 853.875 467.578125 716.390625 618.621094 690.167969 625.902344 Z M 690.167969 625.902344 " fill-opacity="1" fill-rule="nonzero"/><path fill="#56352c" d="M 543.003906 265.390625 C 543.003906 265.390625 547.5 248.152344 548.992188 230.75 C 550.484375 213.347656 540.398438 167.40625 548.992188 156.941406 C 553.703125 151.207031 575.542969 134.1875 599.003906 125.777344 C 618.296875 118.859375 639.390625 120.152344 646.851562 117.714844 C 657.386719 114.273438 699.265625 105.792969 729.515625 115.511719 C 759.761719 125.230469 780.566406 141.632812 784.3125 167.769531 C 788.042969 193.925781 805.679688 239.667969 813.742188 238.46875 C 821.804688 237.265625 822.640625 88.261719 822.640625 88.261719 L 724 49.292969 L 594.910156 53.550781 L 501.871094 136.972656 Z M 543.003906 265.390625 " fill-opacity="1" fill-rule="nonzero"/><path fill="#ffffff" d="M 1332.941406 724.710938 C 1333.46875 724.925781 1333.96875 725.195312 1334.441406 725.511719 C 1334.914062 725.828125 1335.351562 726.1875 1335.757812 726.589844 C 1336.160156 726.992188 1336.519531 727.429688 1336.835938 727.90625 C 1337.152344 728.378906 1337.417969 728.878906 1337.636719 729.40625 C 1337.855469 729.933594 1338.019531 730.476562 1338.132812 731.035156 C 1338.242188 731.59375 1338.296875 732.15625 1338.296875 732.726562 C 1338.296875 733.296875 1338.242188 733.859375 1338.132812 734.417969 C 1338.019531 734.980469 1337.855469 735.519531 1337.636719 736.046875 C 1337.417969 736.574219 1337.152344 737.074219 1336.835938 737.546875 C 1336.519531 738.023438 1336.160156 738.460938 1335.757812 738.863281 C 1335.351562 739.265625 1334.914062 739.625 1334.441406 739.941406 C 1333.96875 740.257812 1333.46875 740.527344 1332.941406 740.746094 C 1332.414062 740.960938 1331.871094 741.125 1331.3125 741.238281 C 1330.753906 741.347656 1330.191406 741.40625 1329.621094 741.40625 C 1329.050781 741.40625 1328.484375 741.347656 1327.925781 741.238281 C 1327.367188 741.125 1326.824219 740.960938 1326.296875 740.746094 C 1325.773438 740.527344 1325.273438 740.257812 1324.796875 739.941406 C 1324.324219 739.625 1323.886719 739.265625 1323.484375 738.863281 C 1323.082031 738.460938 1322.722656 738.023438 1322.402344 737.546875 C 1322.085938 737.074219 1321.820312 736.574219 1321.601562 736.046875 C 1321.382812 735.519531 1321.21875 734.980469 1321.109375 734.417969 C 1320.996094 733.859375 1320.941406 733.296875 1320.941406 732.726562 C 1320.941406 732.15625 1320.996094 731.59375 1321.109375 731.035156 C 1321.21875 730.476562 1321.382812 729.933594 1321.601562 729.40625 C 1321.820312 728.878906 1322.085938 728.378906 1322.402344 727.90625 C 1322.722656 727.429688 1323.082031 726.992188 1323.484375 726.589844 C 1323.886719 726.1875 1324.324219 725.828125 1324.796875 725.511719 C 1325.273438 725.195312 1325.773438 724.925781 1326.296875 724.710938 C 1326.824219 724.492188 1327.367188 724.328125 1327.925781 724.214844 C 1328.484375 724.105469 1329.050781 724.046875 1329.621094 724.046875 C 1330.191406 724.046875 1330.753906 724.105469 1331.3125 724.214844 C 1331.871094 724.328125 1332.414062 724.492188 1332.941406 724.710938 Z M 1332.941406 724.710938 " fill-opacity="1" fill-rule="nonzero"/><path fill="#ffffff" d="M 1332.089844 728.636719 C 1332.089844 730.003906 1330.984375 731.109375 1329.621094 731.109375 C 1328.253906 731.109375 1327.148438 730.003906 1327.148438 728.636719 C 1327.148438 727.273438 1328.253906 726.167969 1329.621094 726.167969 C 1330.984375 726.167969 1332.089844 727.273438 1332.089844 728.636719 Z M 1332.089844 728.636719 " fill-opacity="1" fill-rule="nonzero"/><path fill="#ffffff" d="M 1329.621094 731.953125 C 1327.085938 731.953125 1325.035156 734.007812 1325.035156 736.539062 C 1325.035156 737.207031 1325.570312 737.746094 1326.238281 737.746094 L 1333.003906 737.746094 C 1333.667969 737.746094 1334.207031 737.207031 1334.207031 736.539062 C 1334.207031 734.007812 1332.152344 731.953125 1329.621094 731.953125 Z M 1329.621094 731.953125 " fill-opacity="1" fill-rule="nonzero"/></svg>