<svg xmlns="http://www.w3.org/2000/svg" xmlns:xlink="http://www.w3.org/1999/xlink" width="1920" zoomAndPan="magnify" viewBox="0 0 1440 809.999993" height="1080" preserveAspectRatio="xMidYMid meet" version="1.0"><defs><clipPath id="497d6f7084"><path d="M 309.757812 0 L 1119.757812 0 L 1119.757812 810 L 309.757812 810 Z M 309.757812 0 " clip-rule="nonzero"/></clipPath></defs><g clip-path="url(#497d6f7084)"><path fill="#006aff" d="M 559.710938 0 L 869.78125 0 C 873.871094 0 877.960938 0.101562 882.046875 0.300781 C 886.128906 0.5 890.210938 0.800781 894.28125 1.203125 C 898.351562 1.605469 902.410156 2.105469 906.457031 2.707031 C 910.503906 3.304688 914.53125 4.003906 918.542969 4.804688 C 922.554688 5.601562 926.546875 6.496094 930.515625 7.492188 C 934.484375 8.484375 938.425781 9.574219 942.339844 10.761719 C 946.253906 11.949219 950.136719 13.234375 953.988281 14.613281 C 957.839844 15.988281 961.65625 17.460938 965.433594 19.027344 C 969.214844 20.59375 972.953125 22.25 976.652344 24 C 980.347656 25.746094 984 27.585938 987.609375 29.515625 C 991.21875 31.441406 994.773438 33.457031 998.285156 35.5625 C 1001.792969 37.664062 1005.246094 39.851562 1008.648438 42.125 C 1012.050781 44.398438 1015.394531 46.753906 1018.679688 49.191406 C 1021.964844 51.625 1025.1875 54.144531 1028.351562 56.738281 C 1031.515625 59.332031 1034.609375 62.003906 1037.640625 64.75 C 1040.671875 67.5 1043.632812 70.316406 1046.527344 73.210938 C 1049.417969 76.101562 1052.238281 79.066406 1054.988281 82.097656 C 1057.734375 85.128906 1060.40625 88.222656 1063 91.386719 C 1065.59375 94.546875 1068.109375 97.773438 1070.546875 101.058594 C 1072.984375 104.34375 1075.339844 107.6875 1077.613281 111.089844 C 1079.886719 114.488281 1082.074219 117.945312 1084.175781 121.453125 C 1086.277344 124.960938 1088.292969 128.519531 1090.222656 132.128906 C 1092.152344 135.734375 1093.988281 139.390625 1095.738281 143.085938 C 1097.488281 146.785156 1099.144531 150.523438 1100.710938 154.304688 C 1102.277344 158.082031 1103.75 161.898438 1105.125 165.75 C 1106.503906 169.601562 1107.789062 173.484375 1108.976562 177.398438 C 1110.164062 181.3125 1111.253906 185.253906 1112.246094 189.222656 C 1113.242188 193.191406 1114.136719 197.179688 1114.933594 201.191406 C 1115.734375 205.207031 1116.433594 209.234375 1117.03125 213.28125 C 1117.632812 217.328125 1118.132812 221.386719 1118.535156 225.457031 C 1118.933594 229.527344 1119.234375 233.605469 1119.4375 237.691406 C 1119.636719 241.777344 1119.738281 245.867188 1119.738281 249.957031 L 1119.738281 560.027344 C 1119.738281 564.117188 1119.636719 568.207031 1119.4375 572.292969 C 1119.234375 576.378906 1118.933594 580.457031 1118.535156 584.527344 C 1118.132812 588.597656 1117.632812 592.65625 1117.03125 596.703125 C 1116.433594 600.75 1115.734375 604.78125 1114.933594 608.792969 C 1114.136719 612.804688 1113.242188 616.792969 1112.246094 620.761719 C 1111.253906 624.730469 1110.164062 628.671875 1108.976562 632.585938 C 1107.789062 636.5 1106.503906 640.382812 1105.125 644.234375 C 1103.75 648.089844 1102.277344 651.902344 1100.710938 655.683594 C 1099.144531 659.460938 1097.488281 663.199219 1095.738281 666.898438 C 1093.988281 670.597656 1092.152344 674.25 1090.222656 677.855469 C 1088.292969 681.464844 1086.277344 685.023438 1084.175781 688.53125 C 1082.074219 692.039062 1079.886719 695.496094 1077.613281 698.898438 C 1075.339844 702.296875 1072.984375 705.640625 1070.546875 708.925781 C 1068.109375 712.214844 1065.59375 715.4375 1063 718.597656 C 1060.40625 721.761719 1057.734375 724.859375 1054.988281 727.890625 C 1052.238281 730.921875 1049.417969 733.882812 1046.527344 736.773438 C 1043.632812 739.667969 1040.671875 742.488281 1037.640625 745.234375 C 1034.609375 747.980469 1031.515625 750.652344 1028.351562 753.246094 C 1025.1875 755.84375 1021.964844 758.359375 1018.679688 760.796875 C 1015.394531 763.234375 1012.050781 765.585938 1008.648438 767.859375 C 1005.246094 770.132812 1001.792969 772.320312 998.285156 774.425781 C 994.773438 776.527344 991.21875 778.542969 987.609375 780.472656 C 984 782.398438 980.347656 784.238281 976.652344 785.988281 C 972.953125 787.734375 969.214844 789.394531 965.433594 790.957031 C 961.65625 792.523438 957.839844 793.996094 953.988281 795.375 C 950.136719 796.753906 946.253906 798.035156 942.339844 799.222656 C 938.425781 800.410156 934.484375 801.5 930.515625 802.496094 C 926.546875 803.488281 922.554688 804.386719 918.542969 805.183594 C 914.53125 805.980469 910.503906 806.679688 906.457031 807.28125 C 902.410156 807.878906 898.351562 808.382812 894.28125 808.78125 C 890.210938 809.183594 886.128906 809.484375 882.046875 809.683594 C 877.960938 809.886719 873.871094 809.984375 869.78125 809.984375 L 559.710938 809.984375 C 555.617188 809.984375 551.53125 809.886719 547.445312 809.683594 C 543.359375 809.484375 539.28125 809.183594 535.210938 808.78125 C 531.136719 808.382812 527.078125 807.878906 523.035156 807.28125 C 518.988281 806.679688 514.957031 805.980469 510.945312 805.183594 C 506.933594 804.386719 502.941406 803.488281 498.976562 802.496094 C 495.007812 801.5 491.066406 800.410156 487.152344 799.222656 C 483.234375 798.035156 479.351562 796.753906 475.5 795.375 C 471.648438 793.996094 467.835938 792.523438 464.054688 790.957031 C 460.277344 789.394531 456.535156 787.734375 452.839844 785.988281 C 449.140625 784.238281 445.488281 782.398438 441.878906 780.472656 C 438.273438 778.542969 434.714844 776.527344 431.207031 774.425781 C 427.695312 772.320312 424.242188 770.132812 420.839844 767.859375 C 417.4375 765.585938 414.097656 763.234375 410.808594 760.796875 C 407.523438 758.359375 404.300781 755.84375 401.136719 753.246094 C 397.976562 750.652344 394.878906 747.980469 391.847656 745.234375 C 388.816406 742.488281 385.855469 739.667969 382.964844 736.773438 C 380.070312 733.882812 377.25 730.921875 374.503906 727.890625 C 371.757812 724.859375 369.085938 721.761719 366.488281 718.597656 C 363.894531 715.4375 361.378906 712.214844 358.941406 708.925781 C 356.503906 705.640625 354.148438 702.296875 351.878906 698.898438 C 349.605469 695.496094 347.417969 692.039062 345.3125 688.53125 C 343.210938 685.023438 341.195312 681.464844 339.265625 677.855469 C 337.339844 674.25 335.5 670.597656 333.75 666.898438 C 332 663.199219 330.34375 659.460938 328.777344 655.683594 C 327.214844 651.902344 325.742188 648.089844 324.363281 644.234375 C 322.984375 640.382812 321.703125 636.5 320.515625 632.585938 C 319.328125 628.671875 318.238281 624.730469 317.242188 620.761719 C 316.25 616.792969 315.351562 612.804688 314.554688 608.792969 C 313.757812 604.78125 313.058594 600.75 312.457031 596.703125 C 311.855469 592.65625 311.355469 588.597656 310.957031 584.527344 C 310.554688 580.457031 310.253906 576.378906 310.054688 572.292969 C 309.851562 568.207031 309.753906 564.117188 309.753906 560.027344 L 309.753906 249.957031 C 309.753906 245.867188 309.851562 241.777344 310.054688 237.691406 C 310.253906 233.605469 310.554688 229.527344 310.957031 225.457031 C 311.355469 221.386719 311.855469 217.328125 312.457031 213.28125 C 313.058594 209.234375 313.757812 205.207031 314.554688 201.191406 C 315.351562 197.179688 316.25 193.191406 317.242188 189.222656 C 318.238281 185.253906 319.328125 181.3125 320.515625 177.398438 C 321.703125 173.484375 322.984375 169.601562 324.363281 165.75 C 325.742188 161.898438 327.214844 158.082031 328.777344 154.304688 C 330.34375 150.523438 332 146.785156 333.75 143.085938 C 335.5 139.390625 337.339844 135.734375 339.265625 132.128906 C 341.195312 128.519531 343.210938 124.960938 345.3125 121.453125 C 347.417969 117.945312 349.605469 114.488281 351.878906 111.089844 C 354.148438 107.6875 356.503906 104.34375 358.941406 101.058594 C 361.378906 97.773438 363.894531 94.546875 366.488281 91.386719 C 369.085938 88.222656 371.757812 85.128906 374.503906 82.097656 C 377.25 79.066406 380.070312 76.101562 382.964844 73.210938 C 385.855469 70.316406 388.816406 67.5 391.847656 64.75 C 394.878906 62.003906 397.976562 59.332031 401.136719 56.738281 C 404.300781 54.144531 407.523438 51.625 410.808594 49.191406 C 414.097656 46.753906 417.4375 44.398438 420.839844 42.125 C 424.242188 39.851562 427.695312 37.664062 431.207031 35.5625 C 434.714844 33.457031 438.273438 31.441406 441.878906 29.515625 C 445.488281 27.585938 449.140625 25.746094 452.839844 24 C 456.535156 22.25 460.277344 20.59375 464.054688 19.027344 C 467.835938 17.460938 471.648438 15.988281 475.5 14.613281 C 479.351562 13.234375 483.234375 11.949219 487.152344 10.761719 C 491.066406 9.574219 495.007812 8.484375 498.976562 7.492188 C 502.941406 6.496094 506.933594 5.601562 510.945312 4.804688 C 514.957031 4.003906 518.988281 3.304688 523.035156 2.707031 C 527.078125 2.105469 531.136719 1.605469 535.210938 1.203125 C 539.28125 0.800781 543.359375 0.5 547.445312 0.300781 C 551.53125 0.101562 555.617188 0 559.710938 0 Z M 559.710938 0 " fill-opacity="1" fill-rule="evenodd"/></g><path fill="#fefefe" d="M 701.488281 437.078125 L 681.09375 407.878906 L 518.761719 175.695312 L 588.660156 175.695312 L 719.648438 363.097656 L 740.054688 392.261719 L 910.328125 635.84375 L 840.453125 635.84375 L 701.492188 437.082031 Z M 763.8125 364.625 L 955.8125 141.445312 L 910.289062 141.445312 L 743.582031 335.230469 L 610.445312 141.445312 L 456.875 141.445312 L 658.214844 434.476562 L 456.875 668.523438 L 502.375 668.523438 L 678.40625 463.882812 L 819.039062 668.523438 L 972.613281 668.523438 L 763.777344 364.628906 L 763.8125 364.628906 Z M 763.8125 364.625 " fill-opacity="1" fill-rule="nonzero"/></svg>